<?xml version="1.0" encoding="UTF-8"?>
<svg id="b" data-name="Camada 2" xmlns="http://www.w3.org/2000/svg" width="600.11" height="225" xmlns:xlink="http://www.w3.org/1999/xlink" viewBox="0 0 600.11 225">
  <defs>
    <linearGradient id="d" data-name="Gradiente sem nome 6" x1="110.27" y1="327.95" x2="260.28" y2="327.95" gradientTransform="translate(165.53 485.41) rotate(-37.56) scale(1 -1)" gradientUnits="userSpaceOnUse">
      <stop offset="0" stop-color="#027cb7" stop-opacity="0"/>
      <stop offset=".21" stop-color="#027cb7" stop-opacity=".01"/>
      <stop offset=".3" stop-color="#027cb7" stop-opacity=".05"/>
      <stop offset=".38" stop-color="#027cb7" stop-opacity=".12"/>
      <stop offset=".44" stop-color="#027cb7" stop-opacity=".22"/>
      <stop offset=".49" stop-color="#027cb7" stop-opacity=".35"/>
      <stop offset=".54" stop-color="#027cb7" stop-opacity=".51"/>
      <stop offset=".58" stop-color="#027cb7" stop-opacity=".7"/>
      <stop offset=".62" stop-color="#027cb7" stop-opacity=".91"/>
      <stop offset=".63" stop-color="#027cb7"/>
    </linearGradient>
  </defs>
  <g id="c" data-name="Camada 1">
    <g>
      <g>
        <g>
          <path d="M200,112.5c0,48.25-39.26,87.5-87.5,87.5S25,160.75,25,112.5,64.25,25,112.5,25s87.5,39.26,87.5,87.5Z" fill="#e0f5fc"/>
          <path d="M112.5,0C50.46,0,0,50.47,0,112.5s50.46,112.5,112.5,112.5,112.5-50.46,112.5-112.5S174.53,0,112.5,0ZM112.5,200c-48.25,0-87.5-39.25-87.5-87.5S64.25,25,112.5,25s87.5,39.26,87.5,87.5-39.26,87.5-87.5,87.5Z" fill="#027cb7"/>
        </g>
        <path d="M112.58,187.48c-22.51,0-44.79-10.07-59.54-29.25-25.21-32.78-19.05-79.97,13.74-105.18,15.88-12.21,35.57-17.51,55.43-14.91,19.86,2.59,37.53,12.77,49.74,28.65h0c12.21,15.88,17.51,35.57,14.92,55.43-2.59,19.87-12.77,37.53-28.65,49.74-13.6,10.46-29.68,15.52-45.63,15.52ZM112.37,49.99c-13.69,0-26.94,4.48-37.97,12.97-13.23,10.18-21.71,24.9-23.88,41.45-2.16,16.55,2.25,32.96,12.43,46.19,21.01,27.32,60.33,32.46,87.65,11.45,13.23-10.18,21.71-24.9,23.88-41.45s-2.25-32.96-12.43-46.19h0c-10.18-13.23-24.9-21.71-41.45-23.88-2.75-.36-5.5-.54-8.22-.54Z" fill="url(#d)"/>
        <g>
          <path d="M85.05,94h-10.21l-13.91,36.08h8.91l2.81-7.73h14.69l2.76,7.73h8.91l-13.96-36.08ZM75.27,115.13l4.79-13.2,4.71,13.2h-9.5Z" fill="#374150"/>
          <path d="M121.54,94v14.17c-.23-.33-.46-.64-.72-.95-2.2-2.63-4.95-3.94-8.25-3.94s-6.14,1.32-8.43,3.97c-2.29,2.65-3.43,5.95-3.43,9.9s1.14,7.25,3.43,9.9c2.29,2.65,5.1,3.97,8.43,3.97s6.05-1.31,8.25-3.94c.26-.31.5-.62.72-.95v3.97h7.73v-36.08h-7.73ZM119.66,121.83c-1.26,1.24-2.81,1.86-4.66,1.86s-3.41-.62-4.66-1.86c-1.26-1.24-1.88-2.8-1.88-4.69s.62-3.45,1.88-4.69c1.25-1.24,2.81-1.86,4.66-1.86s3.4.62,4.66,1.86c1.25,1.24,1.88,2.8,1.88,4.69s-.63,3.45-1.88,4.69Z" fill="#374150"/>
          <path d="M153.44,130.08h-18.81v-36.08h18.3c3.09,0,5.64.9,7.63,2.71,1.99,1.8,2.99,4.08,2.99,6.83,0,1.75-.4,3.37-1.21,4.84-.81,1.48-1.88,2.63-3.22,3.45,1.51.82,2.71,1.99,3.61,3.5.89,1.51,1.34,3.18,1.34,5,0,2.78-1.01,5.1-3.02,6.96-2.01,1.86-4.54,2.78-7.6,2.78ZM152.36,101.63h-10v6.65h10.05c.96,0,1.77-.34,2.42-1.03.65-.69.98-1.53.98-2.53,0-.89-.33-1.63-.98-2.22-.65-.58-1.48-.88-2.47-.88ZM152.41,115.7h-10.05v6.75h10.51c.96,0,1.78-.31,2.45-.93.67-.62,1.01-1.37,1.01-2.27,0-1.03-.37-1.88-1.11-2.55s-1.67-1.01-2.81-1.01Z" fill="#374150"/>
        </g>
      </g>
      <g>
        <path d="M303.71,54.01h-12.14l-16.57,42.94h10.62l3.33-9.2h17.48l3.29,9.2h10.61l-16.62-42.94ZM292.07,79.16l5.69-15.7,5.61,15.7h-11.3Z" fill="#fff"/>
        <path d="M352.66,66.28v30.67h-9.2v-2.93c-2.14,2.4-4.78,3.61-7.91,3.61s-5.68-1.02-7.7-3.07c-2.03-2.04-3.04-4.82-3.04-8.34v-19.94h9.2v17.79c0,1.51.43,2.7,1.29,3.56.86.86,1.96,1.29,3.31,1.29s2.5-.43,3.44-1.29c.94-.86,1.41-1.88,1.41-3.07v-18.28h9.2Z" fill="#fff"/>
        <path d="M375.91,88.36h4.66v8.59h-6.07c-3.64,0-6.51-.91-8.62-2.73-2.11-1.82-3.16-4.33-3.16-7.51v-11.9h-5.28v-8.53h5.28v-8.4l9.26-1.9v10.3h8.59v8.53h-8.59v9.75c0,1.15.35,2.07,1.04,2.76.7.7,1.66,1.04,2.88,1.04Z" fill="#fff"/>
        <path d="M388.18,93.39c-3.27-3.11-4.91-7.05-4.91-11.84s1.63-8.73,4.91-11.84c3.27-3.11,7.3-4.66,12.08-4.66s8.81,1.55,12.08,4.66c3.27,3.11,4.91,7.05,4.91,11.84s-1.64,8.73-4.91,11.84c-3.27,3.11-7.3,4.66-12.08,4.66s-8.81-1.55-12.08-4.66ZM394.74,75.94c-1.51,1.45-2.27,3.32-2.27,5.61s.76,4.16,2.27,5.61c1.51,1.45,3.35,2.18,5.52,2.18s4.01-.73,5.52-2.18c1.51-1.45,2.27-3.32,2.27-5.61s-.76-4.16-2.27-5.61c-1.51-1.45-3.35-2.18-5.52-2.18s-4.01.73-5.52,2.18Z" fill="#fff"/>
        <path d="M432.56,75.94c-1.45,1.45-2.18,3.32-2.18,5.61s.73,4.16,2.18,5.61c1.45,1.45,3.22,2.18,5.31,2.18,1.59,0,3.03-.38,4.29-1.13,1.27-.76,2.23-1.83,2.88-3.22l8.47,3.99c-1.43,2.78-3.55,4.99-6.35,6.62s-5.9,2.45-9.29,2.45c-4.66,0-8.61-1.55-11.84-4.66-3.23-3.11-4.85-7.05-4.85-11.84s1.62-8.73,4.85-11.84c3.23-3.11,7.18-4.66,11.84-4.66,3.48,0,6.62.84,9.45,2.51,2.82,1.68,4.93,3.97,6.32,6.87l-8.46,3.99c-.65-1.47-1.62-2.62-2.91-3.43-1.29-.82-2.75-1.23-4.39-1.23-2.08,0-3.85.73-5.31,2.18Z" fill="#fff"/>
        <path d="M480.59,69.01c-2.8-2.27-6.13-3.4-9.97-3.4-3.15,0-5.95.79-8.4,2.39-2.46,1.59-4.11,3.68-4.97,6.26l8.95,2.88c.25-.98.8-1.77,1.66-2.36.86-.6,1.86-.89,3.01-.89,1.3,0,2.42.34,3.34,1.01.92.68,1.38,1.48,1.38,2.42v.31l-8.04,1.04c-3.15.37-5.61,1.42-7.39,3.16s-2.67,3.95-2.67,6.63.88,4.87,2.64,6.59c1.76,1.72,4.01,2.58,6.75,2.58,3.11,0,5.69-1.18,7.76-3.53.35-.4.66-.81.95-1.24v4.09h9.2v-19.93c0-3.07-1.4-5.74-4.2-8.01ZM473.99,88.4c-1.06.83-2.43,1.25-4.11,1.25-2.12,0-3.19-.69-3.19-2.08,0-1.19,1.01-1.9,3.01-2.15l5.89-.74v.5c0,1.3-.53,2.38-1.6,3.22Z" fill="#fff"/>
        <path d="M510.18,65.79v9.2h-1.65c-2.29,0-4.23.63-5.83,1.87-1.59,1.25-2.39,2.73-2.39,4.45v15.64h-9.2v-30.67h9.2v3.82c2.2-2.88,4.92-4.31,8.16-4.31h1.71Z" fill="#fff"/>
        <path d="M533.86,65.79v9.2h-1.65c-2.29,0-4.24.63-5.83,1.87-1.6,1.25-2.39,2.73-2.39,4.45v15.64h-9.2v-30.67h9.2v3.81c2.2-2.87,4.91-4.3,8.15-4.3h1.72Z" fill="#fff"/>
        <path d="M540.92,93.39c-3.27-3.11-4.91-7.05-4.91-11.84s1.63-8.73,4.91-11.84c3.27-3.11,7.3-4.66,12.08-4.66s8.81,1.55,12.08,4.66c3.27,3.11,4.91,7.05,4.91,11.84s-1.64,8.73-4.91,11.84c-3.27,3.11-7.3,4.66-12.08,4.66s-8.81-1.55-12.08-4.66ZM547.48,75.94c-1.51,1.45-2.27,3.32-2.27,5.61s.76,4.16,2.27,5.61c1.51,1.45,3.35,2.18,5.52,2.18s4.01-.73,5.52-2.18c1.51-1.45,2.27-3.32,2.27-5.61s-.76-4.16-2.27-5.61c-1.51-1.45-3.35-2.18-5.52-2.18s-4.01.73-5.52,2.18Z" fill="#fff"/>
        <path d="M586.49,85.66c-8.06-1.02-12.08-4.31-12.08-9.88,0-3.03,1.1-5.5,3.31-7.42,2.21-1.92,5.03-2.88,8.47-2.88,2.94,0,5.64.75,8.1,2.24,2.45,1.49,4.21,3.47,5.28,5.92l-8.96,2.64c-.37-.9-.94-1.62-1.72-2.15-.78-.53-1.62-.8-2.51-.8-.82,0-1.48.19-1.99.58-.51.39-.77.89-.77,1.5,0,1.23,1.55,2.04,4.66,2.45,3.76.45,6.68,1.53,8.74,3.25,2.06,1.72,3.1,3.93,3.1,6.62,0,2.86-1.15,5.22-3.43,7.08-2.29,1.86-5.21,2.79-8.77,2.79-3.15,0-5.99-.74-8.53-2.21-2.54-1.47-4.35-3.46-5.46-5.95l8.89-2.7c.45,1.1,1.11,1.96,1.99,2.58.88.61,1.85.92,2.91.92.9,0,1.66-.21,2.27-.64.61-.43.92-.95.92-1.56s-.35-1.1-1.04-1.47c-.7-.37-1.82-.67-3.37-.92Z" fill="#fff"/>
        <path d="M303.16,110.95v21.22c-.52-.85-1.12-1.66-1.81-2.42-2.84-3.13-6.35-4.69-10.52-4.69s-7.92,1.56-10.89,4.69c-2.96,3.13-4.45,7.06-4.45,11.81s1.49,8.68,4.45,11.8c2.97,3.13,6.6,4.7,10.89,4.7s7.68-1.57,10.52-4.7c.69-.76,1.29-1.56,1.81-2.41v6h5.83v-46h-5.83ZM300,149.38c-2.11,2.06-4.69,3.09-7.76,3.09s-5.65-1.03-7.76-3.09c-2.11-2.07-3.16-4.67-3.16-7.82s1.05-5.76,3.16-7.83c2.11-2.06,4.69-3.09,7.76-3.09s5.65,1.03,7.76,3.09c2.11,2.07,3.16,4.68,3.16,7.83s-1.05,5.75-3.16,7.82Z" fill="#fff"/>
        <path d="M320.76,144.19c.37,2.58,1.49,4.62,3.37,6.13,1.88,1.51,4.15,2.27,6.81,2.27,2,0,3.82-.47,5.46-1.41s2.86-2.21,3.68-3.8l5.34,2.09c-1.31,2.62-3.26,4.7-5.86,6.26-2.6,1.55-5.47,2.33-8.62,2.33-4.58,0-8.45-1.56-11.59-4.69-3.15-3.13-4.72-7.06-4.72-11.81s1.53-8.68,4.6-11.81c3.07-3.13,6.85-4.69,11.35-4.69s8.32,1.54,11.47,4.63c3.15,3.09,4.72,6.94,4.72,11.56,0,.82-.12,1.8-.37,2.94h-25.64ZM340.82,138.91c-.29-2.58-1.38-4.62-3.28-6.13-1.9-1.51-4.18-2.27-6.84-2.27s-4.79.76-6.62,2.27c-1.84,1.51-2.94,3.56-3.31,6.13h20.06Z" fill="#fff"/>
        <path d="M390.81,156.95h-21.9v-42.94h21.29c3.48,0,6.35,1.03,8.62,3.1,2.27,2.07,3.4,4.67,3.4,7.82,0,2.21-.52,4.23-1.56,6.07s-2.46,3.25-4.26,4.23c2,1.02,3.58,2.46,4.72,4.32,1.14,1.86,1.72,3.94,1.72,6.23,0,3.19-1.15,5.85-3.44,7.97-2.29,2.13-5.15,3.19-8.59,3.19ZM389.52,119.71h-14.78v12.94h15.15c1.84,0,3.38-.68,4.63-2.05s1.87-3.06,1.87-5.06c0-1.68-.65-3.07-1.96-4.17-1.31-1.1-2.94-1.66-4.91-1.66ZM389.89,138.18h-15.15v13.07h15.4c1.96,0,3.6-.58,4.91-1.75,1.31-1.17,1.96-2.59,1.96-4.26,0-2.04-.67-3.73-2.02-5.06-1.35-1.33-3.05-1.99-5.09-1.99Z" fill="#fff"/>
        <path d="M425.41,125.79v5.83h-1.35c-2.58,0-4.79.76-6.63,2.27-1.84,1.51-2.76,3.33-2.76,5.46v17.6h-5.82v-30.67h5.82v4.43c.21-.29.44-.58.68-.87,2.29-2.7,5.07-4.05,8.34-4.05h1.72Z" fill="#fff"/>
        <path d="M449.79,128.92c-2.6-2.21-5.67-3.31-9.23-3.31-2.9,0-5.51.79-7.82,2.39-2.31,1.59-3.88,3.68-4.69,6.26l5.46,1.78c.36-1.48,1.23-2.68,2.6-3.62,1.37-.94,2.94-1.41,4.69-1.41,1.97,0,3.62.61,4.97,1.84,1.35,1.22,2.03,2.67,2.03,4.35v.98l-9.45,1.11c-3.11.32-5.56,1.34-7.36,3.03-1.8,1.7-2.7,3.84-2.7,6.41s.93,4.76,2.79,6.41c1.86,1.66,4.24,2.49,7.15,2.49,3.35,0,6.15-1.22,8.4-3.65.43-.47.82-.96,1.17-1.47v4.44h5.89v-20.18c0-3.02-1.3-5.64-3.9-7.85ZM445.62,150.33c-1.45,1.39-3.38,2.08-5.8,2.08-1.76,0-3.15-.35-4.17-1.07-1.02-.72-1.53-1.69-1.53-2.91,0-2.33,1.86-3.72,5.58-4.17l8.1-.99v1.54c0,2.29-.73,4.13-2.18,5.52Z" fill="#fff"/>
        <path d="M484.48,126.28v4.8c-.38-.55-.8-1.08-1.26-1.58-2.64-2.88-5.86-4.32-9.66-4.32s-7.34,1.45-10.12,4.35c-2.78,2.91-4.17,6.53-4.17,10.86s1.38,7.93,4.14,10.8c2.76,2.86,6.14,4.29,10.15,4.29s7.07-1.43,9.69-4.29c.45-.49.86-1,1.23-1.54v7.61c0,2.25-.93,4.11-2.79,5.58-1.86,1.47-4.16,2.21-6.9,2.21-2.17,0-4.12-.58-5.86-1.75-1.74-1.16-3.08-2.75-4.02-4.75l-5.03,3.06c1.35,2.91,3.37,5.2,6.07,6.88,2.7,1.67,5.73,2.51,9.08,2.51,4.42,0,8.07-1.28,10.95-3.84,2.89-2.55,4.33-5.85,4.33-9.9v-30.98h-5.83ZM481.69,147.23c-1.86,1.78-4.16,2.67-6.9,2.67s-5.04-.89-6.9-2.67c-1.86-1.78-2.79-4.04-2.79-6.78s.93-5,2.79-6.78c1.86-1.78,4.16-2.66,6.9-2.66s5.04.88,6.9,2.66c1.86,1.78,2.79,4.04,2.79,6.78s-.93,5-2.79,6.78Z" fill="#fff"/>
        <path d="M517.45,128.92c-2.6-2.21-5.67-3.31-9.23-3.31-2.91,0-5.51.79-7.82,2.39-2.31,1.59-3.88,3.68-4.7,6.26l5.46,1.78c.37-1.48,1.24-2.68,2.61-3.62,1.37-.94,2.93-1.41,4.69-1.41,1.97,0,3.62.61,4.97,1.84,1.35,1.22,2.03,2.67,2.03,4.35v.98l-9.45,1.11c-3.11.32-5.56,1.34-7.36,3.03-1.8,1.7-2.7,3.84-2.7,6.41s.93,4.76,2.79,6.41c1.86,1.66,4.24,2.49,7.15,2.49,3.35,0,6.15-1.22,8.4-3.65.43-.47.82-.96,1.17-1.47v4.44h5.88v-20.18c0-3.02-1.29-5.64-3.89-7.85ZM513.28,150.33c-1.45,1.39-3.39,2.08-5.8,2.08-1.76,0-3.15-.35-4.17-1.07-1.02-.72-1.53-1.69-1.53-2.91,0-2.33,1.86-3.72,5.58-4.17l8.1-.99v1.54c0,2.29-.73,4.13-2.18,5.52Z" fill="#fff"/>
      </g>
    </g>
  </g>
</svg>