<?xml version="1.0" encoding="UTF-8"?>
<svg id="b" data-name="Camada 2" xmlns="http://www.w3.org/2000/svg" width="436.79" height="436.79" xmlns:xlink="http://www.w3.org/1999/xlink" viewBox="0 0 436.79 436.79">
  <defs>
    <linearGradient id="d" data-name="Gradiente sem nome 6" x1="-900.57" y1="-2642.76" x2="-609.37" y2="-2642.76" gradientTransform="translate(-794.11 -2336.8) rotate(-37.56) scale(1 -1)" gradientUnits="userSpaceOnUse">
      <stop offset="0" stop-color="#027cb7" stop-opacity="0"/>
      <stop offset=".21" stop-color="#027cb7" stop-opacity=".01"/>
      <stop offset=".3" stop-color="#027cb7" stop-opacity=".05"/>
      <stop offset=".38" stop-color="#027cb7" stop-opacity=".12"/>
      <stop offset=".44" stop-color="#027cb7" stop-opacity=".22"/>
      <stop offset=".49" stop-color="#027cb7" stop-opacity=".35"/>
      <stop offset=".54" stop-color="#027cb7" stop-opacity=".51"/>
      <stop offset=".58" stop-color="#027cb7" stop-opacity=".7"/>
      <stop offset=".62" stop-color="#027cb7" stop-opacity=".91"/>
      <stop offset=".63" stop-color="#027cb7"/>
    </linearGradient>
  </defs>
  <g id="c" data-name="Camada 1">
    <g>
      <g>
        <path d="M388.26,218.39c0,93.67-76.21,169.86-169.86,169.86S48.53,312.06,48.53,218.39,124.73,48.53,218.39,48.53s169.86,76.21,169.86,169.86Z" fill="#e0f5fc"/>
        <path d="M218.39,0C97.96,0,0,97.98,0,218.39s97.96,218.39,218.39,218.39,218.39-97.96,218.39-218.39S338.81,0,218.39,0ZM218.39,388.26c-93.67,0-169.86-76.2-169.86-169.86S124.73,48.53,218.39,48.53s169.86,76.21,169.86,169.86-76.21,169.86-169.86,169.86Z" fill="#027cb7"/>
      </g>
      <path d="M218.55,363.95c-43.7,0-86.95-19.54-115.58-56.79-48.94-63.64-36.98-155.24,26.67-204.18,30.83-23.71,69.05-33.98,107.61-28.95,38.56,5.04,72.86,24.79,96.57,55.62h0c23.71,30.83,33.99,69.05,28.95,107.61-5.04,38.56-24.79,72.86-55.62,96.57-26.4,20.3-57.61,30.12-88.59,30.12ZM218.14,97.05c-26.58,0-52.29,8.7-73.71,25.17-25.69,19.76-42.15,48.34-46.35,80.47-4.2,32.14,4.37,63.98,24.13,89.68,40.78,53.04,117.11,63.01,170.15,22.22,25.69-19.76,42.15-48.34,46.35-80.47,4.2-32.14-4.37-63.98-24.13-89.68h0c-19.76-25.69-48.34-42.15-80.47-46.35-5.34-.7-10.67-1.04-15.96-1.04Z" fill="url(#d)"/>
      <g>
        <path d="M165.11,182.49h-19.82l-27.01,70.04h17.31l5.45-15.01h28.53l5.35,15.01h17.31l-27.11-70.04ZM146.11,223.51l9.3-25.62,9.15,25.62h-18.45Z" fill="#374150"/>
        <path d="M235.95,182.49v27.5c-.44-.64-.9-1.24-1.4-1.84-4.27-5.11-9.61-7.65-16.02-7.65s-11.92,2.56-16.36,7.7c-4.44,5.14-6.65,11.55-6.65,19.21s2.22,14.08,6.65,19.21c4.44,5.14,9.9,7.7,16.36,7.7s11.74-2.54,16.02-7.65c.51-.6.96-1.21,1.4-1.84v7.7h15.01v-70.04h-15.01ZM232.3,236.51c-2.45,2.4-5.45,3.6-9.05,3.6s-6.62-1.21-9.05-3.6c-2.45-2.4-3.65-5.43-3.65-9.1s1.21-6.7,3.65-9.1c2.43-2.4,5.45-3.6,9.05-3.6s6.61,1.21,9.05,3.6c2.43,2.4,3.65,5.43,3.65,9.1s-1.22,6.7-3.65,9.1Z" fill="#374150"/>
        <path d="M297.87,252.52h-36.52v-70.03h35.52c6,0,10.94,1.75,14.81,5.25,3.87,3.5,5.8,7.92,5.8,13.26,0,3.4-.79,6.54-2.35,9.41-1.57,2.87-3.65,5.1-6.25,6.7,2.93,1.6,5.27,3.87,7,6.8,1.73,2.94,2.6,6.17,2.6,9.7,0,5.4-1.95,9.91-5.85,13.51-3.9,3.6-8.82,5.4-14.76,5.4ZM295.77,197.29h-19.41v12.91h19.51c1.87,0,3.43-.67,4.7-2,1.27-1.33,1.9-2.97,1.9-4.9,0-1.73-.64-3.17-1.9-4.3-1.27-1.13-2.87-1.7-4.8-1.7ZM295.87,224.61h-19.51v13.11h20.41c1.87,0,3.45-.6,4.75-1.8,1.3-1.2,1.95-2.67,1.95-4.4,0-2-.72-3.65-2.15-4.95s-3.25-1.95-5.45-1.95Z" fill="#374150"/>
      </g>
    </g>
  </g>
</svg>